<svg width="174" height="30" viewBox="0 0 174 30" fill="none" xmlns="http://www.w3.org/2000/svg">
<path d="M35.088 17.624V14.672H38.496C39.184 14.672 39.76 14.536 40.224 14.264C40.704 13.992 41.064 13.616 41.304 13.136C41.56 12.656 41.688 12.104 41.688 11.48C41.688 10.856 41.56 10.304 41.304 9.824C41.064 9.344 40.704 8.976 40.224 8.72C39.76 8.448 39.184 8.312 38.496 8.312H35.088V5.36H38.208C39.68 5.36 40.928 5.6 41.952 6.08C42.992 6.56 43.784 7.248 44.328 8.144C44.872 9.024 45.144 10.072 45.144 11.288V11.672C45.144 12.888 44.872 13.944 44.328 14.84C43.784 15.72 42.992 16.408 41.952 16.904C40.928 17.384 39.68 17.624 38.208 17.624H35.088ZM32.16 23V5.36H35.568V23H32.16ZM47.8609 23V5.48H51.1969V23H47.8609ZM46.2289 7.976V5.48H51.1969V7.976H46.2289ZM62.9014 23V19.136H62.3494V14.84C62.3494 14.088 62.1654 13.528 61.7974 13.16C61.4294 12.792 60.8614 12.608 60.0934 12.608C59.6934 12.608 59.2134 12.616 58.6534 12.632C58.0934 12.648 57.5254 12.672 56.9494 12.704C56.3894 12.72 55.8854 12.744 55.4374 12.776V9.944C55.8054 9.912 56.2214 9.88 56.6854 9.848C57.1494 9.816 57.6214 9.8 58.1014 9.8C58.5974 9.784 59.0614 9.776 59.4934 9.776C60.8374 9.776 61.9494 9.952 62.8294 10.304C63.7254 10.656 64.3974 11.208 64.8454 11.96C65.3094 12.712 65.5414 13.696 65.5414 14.912V23H62.9014ZM58.7014 23.336C57.7574 23.336 56.9254 23.168 56.2054 22.832C55.5014 22.496 54.9494 22.016 54.5494 21.392C54.1654 20.768 53.9734 20.016 53.9734 19.136C53.9734 18.176 54.2054 17.392 54.6694 16.784C55.1494 16.176 55.8134 15.72 56.6614 15.416C57.5254 15.112 58.5334 14.96 59.6854 14.96H62.7094V16.952H59.6374C58.8694 16.952 58.2774 17.144 57.8614 17.528C57.4614 17.896 57.2614 18.376 57.2614 18.968C57.2614 19.56 57.4614 20.04 57.8614 20.408C58.2774 20.776 58.8694 20.96 59.6374 20.96C60.1014 20.96 60.5254 20.88 60.9094 20.72C61.3094 20.544 61.6374 20.256 61.8934 19.856C62.1654 19.44 62.3174 18.88 62.3494 18.176L63.1654 19.112C63.0854 20.024 62.8614 20.792 62.4934 21.416C62.1414 22.04 61.6454 22.52 61.0054 22.856C60.3814 23.176 59.6134 23.336 58.7014 23.336ZM69.1148 23V9.968H71.7548V15.56H71.5148C71.5148 14.232 71.6908 13.128 72.0428 12.248C72.3948 11.352 72.9148 10.68 73.6028 10.232C74.3068 9.784 75.1788 9.56 76.2188 9.56H76.3628C77.9148 9.56 79.0908 10.064 79.8907 11.072C80.6908 12.064 81.0908 13.552 81.0908 15.536V23H77.7548V15.248C77.7548 14.448 77.5228 13.8 77.0588 13.304C76.6108 12.808 75.9868 12.56 75.1868 12.56C74.3708 12.56 73.7068 12.816 73.1948 13.328C72.6988 13.824 72.4508 14.496 72.4508 15.344V23H69.1148ZM89.4053 23.408C87.6133 23.408 86.2053 23.032 85.1813 22.28C84.1733 21.512 83.6453 20.456 83.5973 19.112H86.5973C86.6453 19.56 86.8933 19.968 87.3413 20.336C87.7893 20.704 88.4933 20.888 89.4533 20.888C90.2533 20.888 90.8853 20.744 91.3493 20.456C91.8293 20.168 92.0693 19.776 92.0693 19.28C92.0693 18.848 91.8853 18.504 91.5173 18.248C91.1653 17.992 90.5573 17.824 89.6933 17.744L88.5413 17.624C87.0853 17.464 85.9653 17.048 85.1813 16.376C84.3973 15.704 84.0053 14.808 84.0053 13.688C84.0053 12.792 84.2293 12.04 84.6773 11.432C85.1253 10.824 85.7413 10.368 86.5253 10.064C87.3253 9.744 88.2373 9.584 89.2613 9.584C90.8613 9.584 92.1573 9.936 93.1493 10.64C94.1413 11.344 94.6613 12.376 94.7093 13.736H91.7093C91.6773 13.288 91.4533 12.904 91.0373 12.584C90.6213 12.264 90.0213 12.104 89.2373 12.104C88.5333 12.104 87.9893 12.24 87.6053 12.512C87.2213 12.784 87.0293 13.136 87.0293 13.568C87.0293 13.984 87.1813 14.304 87.4853 14.528C87.8053 14.752 88.3173 14.904 89.0213 14.984L90.1733 15.104C91.7093 15.264 92.9093 15.688 93.7733 16.376C94.6533 17.064 95.0933 17.992 95.0933 19.16C95.0933 20.024 94.8533 20.776 94.3733 21.416C93.9093 22.04 93.2533 22.528 92.4053 22.88C91.5573 23.232 90.5573 23.408 89.4053 23.408ZM101.565 23L107.541 5.48H113.109L119.253 23H115.749L110.541 7.808L111.765 8.336H108.765L110.013 7.808L104.973 23H101.565ZM105.741 18.344L106.821 15.464H113.925L114.981 18.344H105.741ZM121.595 23V5.48H124.931V23H121.595ZM119.963 7.976V5.48H124.931V7.976H119.963ZM128.908 23V5.48H132.244V23H128.908ZM127.276 7.976V5.48H132.244V7.976H127.276ZM136.676 23V9.968H140.012V23H136.676ZM134.852 12.464V9.968H140.012V12.464H134.852ZM137.9 8.408C137.244 8.408 136.756 8.24 136.436 7.904C136.132 7.552 135.98 7.12 135.98 6.608C135.98 6.064 136.132 5.624 136.436 5.288C136.756 4.952 137.244 4.784 137.9 4.784C138.556 4.784 139.036 4.952 139.34 5.288C139.644 5.624 139.796 6.064 139.796 6.608C139.796 7.12 139.644 7.552 139.34 7.904C139.036 8.24 138.556 8.408 137.9 8.408ZM149.689 23.456C148.569 23.456 147.585 23.264 146.737 22.88C145.905 22.496 145.209 21.984 144.649 21.344C144.105 20.688 143.689 19.96 143.401 19.16C143.129 18.36 142.993 17.544 142.993 16.712V16.256C142.993 15.392 143.129 14.56 143.401 13.76C143.689 12.944 144.105 12.224 144.649 11.6C145.209 10.96 145.897 10.456 146.713 10.088C147.529 9.704 148.473 9.512 149.545 9.512C150.953 9.512 152.129 9.824 153.073 10.448C154.033 11.056 154.753 11.864 155.233 12.872C155.713 13.864 155.953 14.936 155.953 16.088V17.288H144.409V15.248H153.865L152.833 16.256C152.833 15.424 152.713 14.712 152.473 14.12C152.233 13.528 151.865 13.072 151.369 12.752C150.889 12.432 150.281 12.272 149.545 12.272C148.809 12.272 148.185 12.44 147.673 12.776C147.161 13.112 146.769 13.6 146.497 14.24C146.241 14.864 146.113 15.616 146.113 16.496C146.113 17.312 146.241 18.04 146.497 18.68C146.753 19.304 147.145 19.8 147.673 20.168C148.201 20.52 148.873 20.696 149.689 20.696C150.505 20.696 151.169 20.536 151.681 20.216C152.193 19.88 152.521 19.472 152.665 18.992H155.737C155.545 19.888 155.177 20.672 154.633 21.344C154.089 22.016 153.393 22.536 152.545 22.904C151.713 23.272 150.761 23.456 149.689 23.456ZM164.14 23.432C163.228 23.432 162.388 23.264 161.62 22.928C160.852 22.592 160.188 22.12 159.628 21.512C159.068 20.904 158.636 20.2 158.332 19.4C158.028 18.584 157.876 17.704 157.876 16.76V16.256C157.876 15.328 158.02 14.456 158.308 13.64C158.612 12.824 159.028 12.112 159.556 11.504C160.1 10.896 160.748 10.424 161.5 10.088C162.268 9.736 163.116 9.56 164.044 9.56C165.068 9.56 165.964 9.784 166.732 10.232C167.516 10.664 168.14 11.32 168.604 12.2C169.068 13.08 169.324 14.184 169.372 15.512L168.388 14.36V5.48H171.724V23H169.084V17.456H169.66C169.612 18.784 169.34 19.896 168.844 20.792C168.348 21.672 167.692 22.336 166.876 22.784C166.076 23.216 165.164 23.432 164.14 23.432ZM164.884 20.624C165.54 20.624 166.14 20.48 166.684 20.192C167.228 19.888 167.66 19.456 167.98 18.896C168.316 18.32 168.484 17.648 168.484 16.88V15.92C168.484 15.152 168.316 14.512 167.98 14C167.644 13.472 167.204 13.072 166.66 12.8C166.116 12.512 165.524 12.368 164.884 12.368C164.164 12.368 163.524 12.544 162.964 12.896C162.42 13.232 161.988 13.712 161.668 14.336C161.364 14.96 161.212 15.688 161.212 16.52C161.212 17.352 161.372 18.08 161.692 18.704C162.012 19.312 162.444 19.784 162.988 20.12C163.548 20.456 164.18 20.624 164.884 20.624Z" fill="#293145"/>
<circle cx="6" cy="12" r="6" fill="#0F9AFE"/>
<circle cx="12" cy="18" r="6" fill="#293145"/>
</svg>
